<svg width="231" height="81" viewBox="0 0 231 81" fill="none" xmlns="http://www.w3.org/2000/svg">
<g filter="url(#filter0_i_23_21)">
<path d="M36.3243 44.9929C37.701 45.0981 38.9023 44.0673 39.0075 42.6906C39.1127 41.3139 38.0819 40.1126 36.7053 40.0074L36.3243 44.9929ZM5.63288 73.7362C6.86781 73.1187 7.36834 71.617 6.75084 70.3821C6.13334 69.1472 4.63164 68.6466 3.39671 69.2641L5.63288 73.7362ZM70.3037 66.7465C71.2682 65.7586 71.2492 64.1758 70.2613 63.2112C69.2733 62.2467 67.6905 62.2657 66.726 63.2536L70.3037 66.7465ZM51.0148 61.0001L48.5368 61.3305C48.539 61.3469 48.5413 61.3633 48.5438 61.3797L51.0148 61.0001ZM93.7363 64.529C94.3045 65.7873 95.7852 66.3469 97.0436 65.7787C98.302 65.2105 98.8615 63.7298 98.2933 62.4714L93.7363 64.529ZM94.5148 35.5133C94.5221 34.1326 93.4087 33.0074 92.028 33.0001C90.6473 32.9929 89.5221 34.1063 89.5149 35.4869L94.5148 35.5133ZM92.0382 41.0001L94.5379 40.9612L92.0382 41.0001ZM160.015 26.5001C160.015 25.1194 158.896 24.0001 157.515 24.0001C156.134 24.0001 155.015 25.1194 155.015 26.5001H160.015ZM173.71 43.6973C174.371 42.4852 173.924 40.9666 172.712 40.3055C171.5 39.6443 169.981 40.0909 169.32 41.303L173.71 43.6973ZM144.324 26.493C145.701 26.5982 146.902 25.5674 147.008 24.1907C147.113 22.814 146.082 21.6127 144.705 21.5075L144.324 26.493ZM113.633 55.2363C114.868 54.6188 115.368 53.1171 114.751 51.8821C114.133 50.6472 112.632 50.1467 111.397 50.7642L113.633 55.2363ZM203.146 46.6611C204.064 47.6931 205.644 47.7861 206.676 46.8688C207.708 45.9516 207.801 44.3714 206.883 43.3394L203.146 46.6611ZM199.015 3.01317C199.022 1.63247 197.909 0.507307 196.528 0.500035C195.147 0.492763 194.022 1.60614 194.015 2.98683L199.015 3.01317ZM198.015 25L200.515 24.9611L198.015 25ZM229.304 38.2466C230.268 37.2586 230.249 35.6758 229.261 34.7113C228.273 33.7468 226.691 33.7657 225.726 34.7537L229.304 38.2466ZM210.015 32.5001L207.537 32.8305C207.539 32.847 207.541 32.8634 207.544 32.8798L210.015 32.5001ZM36.7053 40.0074C30.524 39.5352 23.0707 39.9055 17.2446 41.635C14.3465 42.4953 11.6114 43.761 9.67439 45.639C7.63237 47.6188 6.52322 50.2576 7.04881 53.4112L11.9808 52.5892C11.7564 51.2427 12.1485 50.2045 13.1549 49.2287C14.2663 48.1511 16.1268 47.1825 18.6675 46.4283C23.7188 44.9288 30.5155 44.5491 36.3243 44.9929L36.7053 40.0074ZM7.04881 53.4112C7.37523 55.3697 8.52892 56.7698 10.008 57.6878C11.3996 58.5515 13.1017 59.0125 14.7925 59.2879C18.1534 59.8355 22.4632 59.7823 26.4332 59.8126C30.5692 59.8442 34.4166 59.9622 37.3891 60.7C40.3692 61.4398 41.6936 62.5897 42.0957 64.1312L46.9338 62.8691C45.836 58.6607 42.2229 56.7482 38.5936 55.8473C34.9567 54.9445 30.5229 54.8437 26.4714 54.8128C22.2538 54.7805 18.4699 54.8211 15.5965 54.353C14.17 54.1206 13.2198 53.7964 12.6447 53.4395C12.1569 53.1368 12.0294 52.8806 11.9808 52.5892L7.04881 53.4112ZM42.0957 64.1312C42.4233 65.387 41.8829 66.958 39.0054 68.8715C36.2268 70.7193 32.045 72.2906 27.4085 73.4497C22.8115 74.599 17.9733 75.2927 14.0168 75.4875C12.0355 75.5851 10.332 75.5546 9.02056 75.4114C8.36508 75.3398 7.85031 75.2446 7.46977 75.1404C7.06542 75.0297 6.93278 74.9411 6.94842 74.9521L4.08117 79.0483C5.26413 79.8763 6.94865 80.2149 8.47777 80.3819C10.1351 80.5628 12.119 80.587 14.2628 80.4815C18.5563 80.27 23.7181 79.5262 28.6211 78.3005C33.4845 77.0846 38.3028 75.3434 41.7741 73.035C45.1467 70.7922 48.1062 67.3633 46.9338 62.8691L42.0957 64.1312ZM6.94842 74.9521C5.88245 74.2059 5.57094 73.7232 5.50054 73.5774C5.47879 73.5324 5.53319 73.6857 5.46099 73.8662C5.43014 73.9433 5.42368 73.9062 5.54827 73.8045C5.59595 73.7656 5.64018 73.7362 5.66646 73.7199C5.67859 73.7124 5.68377 73.7097 5.67959 73.712C5.67741 73.7132 5.67268 73.7158 5.66507 73.7198C5.66125 73.7218 5.65669 73.7241 5.65135 73.7269C5.64868 73.7283 5.6458 73.7297 5.64273 73.7313C5.64119 73.732 5.6396 73.7329 5.63796 73.7337C5.63714 73.7341 5.63587 73.7347 5.63546 73.7349C5.63417 73.7356 5.63288 73.7362 4.51479 71.5002C3.39671 69.2641 3.39538 69.2648 3.39404 69.2655C3.39357 69.2657 3.3922 69.2664 3.39126 69.2669C3.38938 69.2678 3.38743 69.2688 3.3854 69.2698C3.38136 69.2719 3.37705 69.2741 3.37248 69.2764C3.36332 69.2811 3.3531 69.2864 3.34187 69.2923C3.31943 69.3041 3.29285 69.3183 3.2626 69.335C3.20226 69.3683 3.12639 69.412 3.03891 69.466C2.86597 69.5728 2.63676 69.727 2.38757 69.9303C1.91841 70.313 1.22444 70.9946 0.818596 72.0093C0.371394 73.1273 0.363293 74.4369 0.997792 75.7512C1.58364 76.9647 2.64714 78.0445 4.08117 79.0483L6.94842 74.9521ZM66.726 63.2536C63.9503 66.0966 61.7421 68.0728 59.9742 69.2631C58.1228 70.5096 57.2414 70.5608 56.9317 70.4963C56.7679 70.4621 56.1808 70.2675 55.432 68.5698C54.6971 66.9035 54.0548 64.3236 53.4858 60.6204L48.5438 61.3797C49.1288 65.1872 49.8481 68.2995 50.8572 70.5875C51.8525 72.8442 53.3919 74.8661 55.9118 75.3911C58.2858 75.8858 60.6452 74.839 62.7666 73.4107C64.9715 71.9262 67.468 69.651 70.3037 66.7465L66.726 63.2536ZM51.0148 61.0001C53.4929 60.6697 53.493 60.6703 53.4931 60.6709C53.4931 60.671 53.4931 60.6715 53.4932 60.6717C53.4932 60.6722 53.4933 60.6724 53.4933 60.6725C53.4933 60.6725 53.4932 60.6716 53.4929 60.6699C53.4925 60.6664 53.4916 60.6595 53.4903 60.6491C53.4877 60.6283 53.4836 60.5939 53.4782 60.5465C53.4673 60.4518 53.4516 60.3057 53.4338 60.1142C53.3981 59.7308 53.3544 59.1678 53.3251 58.473C53.2663 57.0768 53.2675 55.1816 53.4987 53.1589C53.9819 48.9304 55.3702 44.9761 58.3398 43.1201L55.6898 38.8801C50.6595 42.0241 49.0477 48.0698 48.531 52.5912C48.2622 54.9435 48.2633 57.1108 48.3295 58.6834C48.3628 59.4729 48.4128 60.1209 48.4553 60.5773C48.4765 60.8057 48.4959 60.9868 48.5105 61.1143C48.5178 61.178 48.5239 61.2284 48.5284 61.2647C48.5306 61.2828 48.5325 61.2974 48.5339 61.3084C48.5346 61.3139 48.5352 61.3185 48.5357 61.3222C48.5359 61.324 48.5361 61.3256 48.5363 61.327C48.5364 61.3277 48.5365 61.3286 48.5366 61.3289C48.5367 61.3297 48.5368 61.3305 51.0148 61.0001ZM58.3398 43.1201C60.0746 42.0358 60.3249 42.5584 60.0242 42.367C59.9511 42.3205 60.3266 42.5824 60.4652 43.9413C60.5873 45.1374 60.4543 46.6164 60.1378 47.9434C59.9818 48.5973 59.7936 49.1611 59.6023 49.5937C59.5074 49.8086 59.4201 49.9717 59.3477 50.0879C59.2724 50.2088 59.234 50.2454 59.247 50.2324L62.7826 53.7679C63.4059 53.1446 63.853 52.3446 64.1754 51.6154C64.5134 50.8507 64.7901 49.9888 65.0013 49.1037C65.4191 47.3525 65.6299 45.3002 65.4394 43.4338C65.2656 41.7302 64.6723 39.3984 62.7086 38.1487C60.5173 36.7543 57.955 37.4643 55.6898 38.8801L58.3398 43.1201ZM59.247 50.2324C58.0607 51.4187 55.6208 53.6167 53.4198 55.5661C52.3314 56.5301 51.3202 57.4168 50.5809 58.0627C50.2114 58.3856 49.9101 58.648 49.7013 58.8295C49.597 58.9203 49.5158 58.9908 49.4608 59.0386C49.4333 59.0625 49.4124 59.0806 49.3983 59.0928C49.3913 59.0988 49.3861 59.1034 49.3826 59.1064C49.3808 59.1079 49.3795 59.1091 49.3787 59.1098C49.3783 59.1102 49.378 59.1104 49.3778 59.1106C49.3777 59.1107 49.3776 59.1107 49.3776 59.1108C49.3775 59.1108 49.3775 59.1108 51.0148 61.0001C52.6521 62.8893 52.6522 62.8893 52.6523 62.8892C52.6523 62.8891 52.6524 62.889 52.6526 62.8889C52.6528 62.8887 52.6532 62.8884 52.6537 62.888C52.6547 62.8871 52.6561 62.8859 52.658 62.8843C52.6617 62.881 52.6672 62.8762 52.6745 62.8699C52.689 62.8573 52.7105 62.8387 52.7386 62.8143C52.7947 62.7656 52.877 62.6941 52.9826 62.6022C53.1938 62.4185 53.498 62.1537 53.8706 61.8281C54.6157 61.1771 55.6358 60.2826 56.7349 59.3091C58.9089 57.3836 61.4689 55.0816 62.7826 53.7679L59.247 50.2324ZM98.2933 62.4714C97.1078 59.8457 96.2505 57.7114 95.6402 54.6751C95.0201 51.5899 94.6394 47.4885 94.5379 40.9612L89.5385 41.0389C89.6419 47.6906 90.0307 52.14 90.7383 55.6604C91.4557 59.2298 92.4843 61.756 93.7363 64.529L98.2933 62.4714ZM94.5379 40.9612C94.5121 39.3052 94.5043 37.4968 94.5148 35.5133L89.5149 35.4869C89.5043 37.499 89.5121 39.3425 89.5385 41.0389L94.5379 40.9612ZM92.0382 41.0001C93.8533 39.281 93.8529 39.2805 93.8523 39.28C93.8521 39.2797 93.8516 39.2791 93.8511 39.2787C93.8503 39.2778 93.8493 39.2767 93.8481 39.2755C93.8458 39.2731 93.843 39.2702 93.8397 39.2667C93.8331 39.2598 93.8244 39.2507 93.8136 39.2395C93.7921 39.2172 93.7625 39.1867 93.725 39.1485C93.6502 39.0723 93.544 38.9656 93.4095 38.8342C93.1408 38.5716 92.7569 38.208 92.2817 37.789C91.3396 36.9584 89.9992 35.8749 88.457 34.9306C86.9414 34.0025 85.0691 33.1077 83.0849 32.8291C81.0144 32.5384 78.7532 32.9222 76.8424 34.6419L80.1872 38.3584C80.7764 37.8281 81.4557 37.6494 82.3896 37.7805C83.4097 37.9238 84.6057 38.4352 85.846 39.1946C87.0596 39.9378 88.1625 40.8231 88.9749 41.5393C89.3768 41.8937 89.6979 42.1981 89.9148 42.4101C90.0232 42.516 90.105 42.5983 90.1574 42.6517C90.1836 42.6784 90.2024 42.6978 90.2135 42.7093C90.219 42.715 90.2226 42.7187 90.2242 42.7204C90.225 42.7212 90.2253 42.7216 90.2251 42.7214C90.225 42.7212 90.2248 42.721 90.2244 42.7206C90.2243 42.7205 90.2239 42.7201 90.2238 42.72C90.2234 42.7196 90.223 42.7191 92.0382 41.0001ZM76.8424 34.6419C75.8361 35.5476 75.1065 36.801 74.5583 38.0647C73.9949 39.3633 73.541 40.8666 73.1791 42.4514C72.455 45.6225 72.0505 49.3378 71.9533 52.8688C71.8565 56.3839 72.0602 59.8627 72.6231 62.5382C72.8999 63.8542 73.2988 65.1524 73.9058 66.1845C74.4801 67.1609 75.6239 68.5001 77.5148 68.5001L77.5148 63.5001C78.2807 63.5001 78.4558 64.0581 78.2156 63.6497C78.0083 63.2971 77.747 62.607 77.516 61.5089C77.0632 59.3563 76.8606 56.3039 76.9514 53.0064C77.0417 49.7249 77.4184 46.3465 78.0537 43.5645C78.3715 42.1727 78.7418 40.9846 79.1452 40.0547C79.5638 39.0899 79.9435 38.5777 80.1872 38.3584L76.8424 34.6419ZM77.5148 68.5001C79.8049 68.5001 81.5886 66.9489 82.8495 65.4589C84.1957 63.8681 85.4792 61.7087 86.7111 59.3085C89.1758 54.5062 91.7393 48.1144 94.3401 41.9753L89.7362 40.0249C87.0647 46.3309 84.6166 52.4391 82.2627 57.0255C81.0852 59.3197 80.0077 61.0769 79.0327 62.229C77.9724 63.482 77.4747 63.5001 77.5148 63.5001L77.5148 68.5001ZM157.515 26.5001C155.015 26.5001 155.015 26.5004 155.015 26.5008C155.015 26.501 155.015 26.5015 155.015 26.502C155.015 26.503 155.015 26.5044 155.015 26.5061C155.015 26.5096 155.015 26.5145 155.015 26.5208C155.015 26.5335 155.015 26.5518 155.015 26.5757C155.015 26.6235 155.015 26.6933 155.016 26.7839C155.017 26.9649 155.019 27.2287 155.023 27.5639C155.031 28.2341 155.047 29.1907 155.078 30.3423C155.141 32.6417 155.268 35.736 155.523 38.889C155.776 42.0206 156.162 45.3026 156.765 47.94C157.064 49.2492 157.442 50.5133 157.94 51.5531C158.38 52.4724 159.18 53.7946 160.637 54.341L162.393 49.6593C162.85 49.8307 162.775 50.0748 162.45 49.3944C162.182 48.8347 161.903 47.9776 161.639 46.8259C161.117 44.5415 160.754 41.5422 160.507 38.4863C160.261 35.4518 160.138 32.4523 160.076 30.2049C160.046 29.083 160.03 28.1528 160.022 27.5047C160.019 27.1807 160.017 26.9274 160.016 26.7562C160.015 26.6705 160.015 26.6054 160.015 26.5623C160.015 26.5407 160.015 26.5246 160.015 26.5142C160.015 26.509 160.015 26.5052 160.015 26.5028C160.015 26.5017 160.015 26.5008 160.015 26.5004C160.015 26.5002 160.015 26.5001 160.015 26.5C160.015 26.5 160.015 26.5001 157.515 26.5001ZM160.637 54.341C162.866 55.1769 164.932 54.1206 166.238 53.1685C167.64 52.1462 168.933 50.6999 169.986 49.3508C171.06 47.9749 171.987 46.5659 172.639 45.5131C172.968 44.9835 173.231 44.5367 173.415 44.2194C173.506 44.0607 173.578 43.9339 173.628 43.8451C173.653 43.8006 173.672 43.7656 173.686 43.7408C173.693 43.7283 173.698 43.7184 173.702 43.7112C173.704 43.7075 173.706 43.7046 173.707 43.7022C173.708 43.7011 173.708 43.7001 173.708 43.6993C173.709 43.6989 173.709 43.6984 173.709 43.6982C173.709 43.6977 173.71 43.6973 171.515 42.5002C169.32 41.303 169.32 41.3027 169.32 41.3024C169.32 41.3024 169.321 41.3022 169.321 41.3021C169.321 41.3019 169.321 41.302 169.321 41.3021C169.32 41.3025 169.32 41.3035 169.319 41.3051C169.317 41.3084 169.314 41.3143 169.309 41.3226C169.3 41.3393 169.285 41.3659 169.265 41.4016C169.225 41.4732 169.164 41.5813 169.084 41.7204C168.923 41.9988 168.687 42.3997 168.39 42.8779C167.793 43.8406 166.97 45.0879 166.044 46.2744C165.097 47.4878 164.14 48.5103 163.292 49.1285C162.348 49.8171 162.163 49.5733 162.393 49.6593L160.637 54.341ZM144.705 21.5075C138.524 21.0352 131.071 21.4056 125.245 23.1351C122.346 23.9954 119.611 25.261 117.674 27.1391C115.632 29.1189 114.523 31.7577 115.049 34.9112L119.981 34.0892C119.756 32.7428 120.149 31.7046 121.155 30.7288C122.266 29.6512 124.127 28.6825 126.668 27.9283C131.719 26.4288 138.516 26.0491 144.324 26.493L144.705 21.5075ZM115.049 34.9112C115.375 36.8697 116.529 38.2699 118.008 39.1878C119.4 40.0516 121.102 40.5126 122.793 40.788C126.153 41.3355 130.463 41.2824 134.433 41.3127C138.569 41.3443 142.417 41.4623 145.389 42.2001C148.369 42.9398 149.694 44.0898 150.096 45.6313L154.934 44.3692C153.836 40.1608 150.223 38.2483 146.594 37.3474C142.957 36.4446 138.523 36.3438 134.471 36.3128C130.254 36.2806 126.47 36.3212 123.596 35.8531C122.17 35.6207 121.22 35.2965 120.645 34.9396C120.157 34.6368 120.029 34.3807 119.981 34.0892L115.049 34.9112ZM150.096 45.6313C150.423 46.8871 149.883 48.4581 147.005 50.3716C144.227 52.2194 140.045 53.7907 135.408 54.9498C130.812 56.0991 125.973 56.7927 122.017 56.9876C120.036 57.0852 118.332 57.0547 117.021 56.9115C116.365 56.8399 115.85 56.7446 115.47 56.6404C115.065 56.5298 114.933 56.4412 114.948 56.4521L112.081 60.5483C113.264 61.3764 114.949 61.7149 116.478 61.8819C118.135 62.0629 120.119 62.0871 122.263 61.9815C126.556 61.7701 131.718 61.0263 136.621 59.8005C141.485 58.5847 146.303 56.8435 149.774 54.5351C153.147 52.2923 156.106 48.8634 154.934 44.3692L150.096 45.6313ZM114.948 56.4521C113.882 55.706 113.571 55.2233 113.501 55.0775C113.479 55.0324 113.533 55.1857 113.461 55.3662C113.43 55.4434 113.424 55.4062 113.548 55.3046C113.596 55.2657 113.64 55.2362 113.667 55.22C113.679 55.2125 113.684 55.2097 113.68 55.2121C113.677 55.2133 113.673 55.2158 113.665 55.2198C113.661 55.2218 113.657 55.2242 113.651 55.2269C113.649 55.2283 113.646 55.2298 113.643 55.2313C113.641 55.2321 113.64 55.2329 113.638 55.2337C113.637 55.2341 113.636 55.2348 113.635 55.235C113.634 55.2356 113.633 55.2363 112.515 53.0002C111.397 50.7642 111.395 50.7649 111.394 50.7655C111.394 50.7658 111.392 50.7665 111.391 50.7669C111.389 50.7679 111.387 50.7689 111.385 50.7699C111.381 50.7719 111.377 50.7741 111.373 50.7765C111.363 50.7811 111.353 50.7864 111.342 50.7923C111.319 50.8041 111.293 50.8183 111.263 50.8351C111.202 50.8684 111.126 50.912 111.039 50.966C110.866 51.0729 110.637 51.227 110.388 51.4303C109.918 51.8131 109.224 52.4947 108.819 53.5093C108.371 54.6273 108.363 55.9369 108.998 57.2512C109.584 58.4648 110.647 59.5446 112.081 60.5483L114.948 56.4521ZM206.883 43.3394C204.782 40.9751 203.411 39.5965 202.381 37.2501C201.351 34.9032 200.615 31.4131 200.515 24.9611L195.515 25.0389C195.62 31.7659 196.383 36.0258 197.802 39.2592C199.222 42.4931 201.248 44.5252 203.146 46.6611L206.883 43.3394ZM200.515 24.9611C200.5 24.0261 200.111 18.8937 199.744 13.9361C199.364 8.8008 199.01 3.8815 199.015 3.01317L194.015 2.98683C194.009 4.11628 194.392 9.35887 194.758 14.3051C195.137 19.429 195.504 24.2977 195.515 25.0389L200.515 24.9611ZM198.015 25C199.543 23.0218 199.543 23.0214 199.542 23.021C199.542 23.0208 199.542 23.0203 199.541 23.02C199.54 23.0192 199.539 23.0184 199.538 23.0174C199.535 23.0154 199.532 23.0129 199.528 23.0099C199.52 23.0039 199.51 22.9958 199.497 22.9859C199.47 22.9659 199.434 22.9383 199.387 22.9035C199.294 22.834 199.162 22.736 198.993 22.6148C198.657 22.3728 198.177 22.0371 197.588 21.6508C196.415 20.8831 194.774 19.8928 192.94 19.0438C191.131 18.2062 188.994 17.4396 186.86 17.2377C184.703 17.0337 182.287 17.3919 180.342 19.1418L183.687 22.8582C184.243 22.3581 185.076 22.0913 186.389 22.2155C187.723 22.3417 189.274 22.8563 190.84 23.5812C192.381 24.2947 193.802 25.1482 194.848 25.8336C195.368 26.1738 195.786 26.467 196.071 26.6723C196.214 26.7748 196.322 26.855 196.393 26.9078C196.428 26.9342 196.454 26.9537 196.47 26.9656C196.478 26.9716 196.483 26.9757 196.486 26.9778C196.487 26.9789 196.488 26.9795 196.488 26.9795C196.488 26.9796 196.488 26.9795 196.488 26.9793C196.487 26.9791 196.487 26.9789 196.487 26.9788C196.487 26.9785 196.486 26.9782 198.015 25ZM180.342 19.1418C179.331 20.0518 178.615 21.2961 178.089 22.5493C177.551 23.8327 177.137 25.3078 176.823 26.8536C176.194 29.9459 175.92 33.5482 175.952 36.9613C175.985 40.3596 176.323 43.7204 176.993 46.3071C177.324 47.5815 177.776 48.8349 178.425 49.8275C179.044 50.7754 180.204 52 182.015 52L182.015 47C182.701 47 182.86 47.4746 182.611 47.0924C182.39 46.755 182.104 46.0982 181.833 45.0523C181.301 42.9983 180.982 40.0779 180.952 36.9137C180.922 33.7643 181.179 30.5229 181.723 27.8495C181.994 26.5125 182.326 25.3743 182.7 24.4839C183.086 23.5633 183.448 23.0732 183.687 22.8582L180.342 19.1418ZM182.015 52C184.201 52 186.058 50.599 187.457 49.1724C188.949 47.6505 190.43 45.5703 191.861 43.2158C194.736 38.4887 197.667 32.2303 200.317 25.9752L195.713 24.0248C193.091 30.2148 190.272 36.2064 187.589 40.618C186.242 42.8329 184.992 44.5442 183.887 45.6715C182.688 46.8941 182.079 47 182.015 47L182.015 52ZM225.726 34.7537C222.95 37.5967 220.742 39.5729 218.974 40.7632C217.123 42.0096 216.241 42.0609 215.932 41.9963C215.768 41.9622 215.181 41.7675 214.432 40.0699C213.697 38.4036 213.055 35.8237 212.486 32.1205L207.544 32.8798C208.129 36.6872 208.848 39.7995 209.857 42.0876C210.853 44.3443 212.392 46.3661 214.912 46.8912C217.286 47.3859 219.645 46.339 221.767 44.9107C223.972 43.4263 226.468 41.1511 229.304 38.2466L225.726 34.7537ZM210.015 32.5001C212.493 32.1697 212.493 32.1704 212.493 32.1709C212.493 32.171 212.493 32.1716 212.493 32.1718C212.493 32.1723 212.493 32.1725 212.493 32.1725C212.493 32.1726 212.493 32.1717 212.493 32.17C212.492 32.1665 212.492 32.1595 212.49 32.1491C212.488 32.1284 212.484 32.0939 212.478 32.0466C212.467 31.9519 212.452 31.8058 212.434 31.6143C212.398 31.2309 212.354 30.6679 212.325 29.9731C212.266 28.5769 212.268 26.6817 212.499 24.659C212.982 20.4304 214.37 16.4762 217.34 14.6201L214.69 10.3801C209.659 13.5241 208.048 19.5698 207.531 24.0913C207.262 26.4436 207.263 28.6109 207.33 30.1834C207.363 30.973 207.413 31.6209 207.455 32.0774C207.477 32.3058 207.496 32.4869 207.51 32.6143C207.518 32.6781 207.524 32.7285 207.528 32.7647C207.531 32.7829 207.532 32.7975 207.534 32.8085C207.535 32.814 207.535 32.8186 207.536 32.8223C207.536 32.8241 207.536 32.8257 207.536 32.8271C207.536 32.8278 207.537 32.8286 207.537 32.829C207.537 32.8298 207.537 32.8305 210.015 32.5001ZM217.34 14.6201C219.075 13.5359 219.325 14.0584 219.024 13.8671C218.951 13.8206 219.327 14.0824 219.465 15.4414C219.587 16.6375 219.454 18.1165 219.138 19.4434C218.982 20.0973 218.794 20.6612 218.602 21.0938C218.507 21.3086 218.42 21.4718 218.348 21.588C218.272 21.7089 218.234 21.7455 218.247 21.7324L221.783 25.2679C222.406 24.6447 222.853 23.8447 223.175 23.1155C223.513 22.3508 223.79 21.4889 224.001 20.6037C224.419 18.8525 224.63 16.8002 224.439 14.9338C224.266 13.2303 223.672 10.8984 221.709 9.64879C219.517 8.25435 216.955 8.9644 214.69 10.3801L217.34 14.6201ZM218.247 21.7324C217.061 22.9188 214.621 25.1167 212.42 27.0662C211.331 28.0302 210.32 28.9169 209.581 29.5628C209.211 29.8856 208.91 30.1481 208.701 30.3296C208.597 30.4204 208.516 30.4909 208.461 30.5387C208.433 30.5625 208.412 30.5807 208.398 30.5928C208.391 30.5989 208.386 30.6035 208.383 30.6065C208.381 30.608 208.38 30.6091 208.379 30.6099C208.378 30.6102 208.378 30.6105 208.378 30.6107C208.378 30.6108 208.378 30.6108 208.378 30.6109C208.378 30.6109 208.378 30.6109 210.015 32.5001C211.652 34.3894 211.652 34.3893 211.652 34.3893C211.652 34.3892 211.652 34.3891 211.653 34.389C211.653 34.3888 211.653 34.3884 211.654 34.388C211.655 34.3872 211.656 34.3859 211.658 34.3843C211.662 34.3811 211.667 34.3763 211.674 34.37C211.689 34.3574 211.711 34.3387 211.739 34.3144C211.795 34.2657 211.877 34.1941 211.983 34.1023C212.194 33.9186 212.498 33.6537 212.871 33.3281C213.616 32.6772 214.636 31.7827 215.735 30.8092C217.909 28.8837 220.469 26.5816 221.783 25.2679L218.247 21.7324Z" fill="#DED4C1"/>
</g>
<g filter="url(#filter1_i_23_21)">
<circle cx="157.015" cy="17" r="3" fill="#DED4C1"/>
</g>
<defs>
<filter id="filter0_i_23_21" x="0.5" y="0.5" width="229.515" height="84.0442" filterUnits="userSpaceOnUse" color-interpolation-filters="sRGB">
<feFlood flood-opacity="0" result="BackgroundImageFix"/>
<feBlend mode="normal" in="SourceGraphic" in2="BackgroundImageFix" result="shape"/>
<feColorMatrix in="SourceAlpha" type="matrix" values="0 0 0 0 0 0 0 0 0 0 0 0 0 0 0 0 0 0 127 0" result="hardAlpha"/>
<feOffset dy="4"/>
<feGaussianBlur stdDeviation="2"/>
<feComposite in2="hardAlpha" operator="arithmetic" k2="-1" k3="1"/>
<feColorMatrix type="matrix" values="0 0 0 0 0 0 0 0 0 0 0 0 0 0 0 0 0 0 0.25 0"/>
<feBlend mode="normal" in2="shape" result="effect1_innerShadow_23_21"/>
</filter>
<filter id="filter1_i_23_21" x="154.015" y="14" width="6" height="10" filterUnits="userSpaceOnUse" color-interpolation-filters="sRGB">
<feFlood flood-opacity="0" result="BackgroundImageFix"/>
<feBlend mode="normal" in="SourceGraphic" in2="BackgroundImageFix" result="shape"/>
<feColorMatrix in="SourceAlpha" type="matrix" values="0 0 0 0 0 0 0 0 0 0 0 0 0 0 0 0 0 0 127 0" result="hardAlpha"/>
<feOffset dy="4"/>
<feGaussianBlur stdDeviation="2"/>
<feComposite in2="hardAlpha" operator="arithmetic" k2="-1" k3="1"/>
<feColorMatrix type="matrix" values="0 0 0 0 0 0 0 0 0 0 0 0 0 0 0 0 0 0 0.25 0"/>
<feBlend mode="normal" in2="shape" result="effect1_innerShadow_23_21"/>
</filter>
</defs>
</svg>
