<svg width="13" height="22" viewBox="0 0 13 22" fill="none" xmlns="http://www.w3.org/2000/svg">
<path fill-rule="evenodd" clip-rule="evenodd" d="M8 22C8.55228 22 9 21.5523 9 21V14L7.29289 15.7071C7.10536 15.8946 7 16.149 7 16.4142V22H8ZM4 14L5.70711 15.7071C5.89464 15.8946 6 16.149 6 16.4142V22H5C4.44772 22 4 21.5523 4 21V14Z" fill="#81C08B"/>
<path d="M9 14H4L5.70711 15.7071C5.89464 15.8946 6 16.149 6 16.4142V22H7V16.4142C7 16.149 7.10536 15.8946 7.29289 15.7071L9 14Z" fill="#FEFFF0"/>
<path fill-rule="evenodd" clip-rule="evenodd" d="M6.5 15C10.0899 15 13 12.0899 13 8.5C12.4249 7.05212 12.5 7.5 11 6.5C7.53457 8.04158 6.01687 8.27374 4 7.5C5.52396 6.5976 5.85835 5.90324 6 4.5C5.67541 6.01395 3.68279 5.91343 0.283196 8.30108C0.189856 8.36663 0.0954556 8.43293 0 8.5C0 12.0899 2.91015 15 6.5 15Z" fill="#F4E7DD"/>
<path d="M6.5 1.5C0.5 1.5 0 4.91015 0 8.5L0.283196 8.30108C3.68279 5.91343 5.67541 6.01395 6 4.5C5.85835 5.90324 5.52396 6.5976 4 7.5C6.01687 8.27374 7.53457 8.04158 11 6.5C12.5 7.5 12.4249 7.05212 13 8.5C13 4.91015 12.5 1.5 6.5 1.5Z" fill="#59483B"/>
<path d="M5 0C5.38394 0.751198 5.64624 1.13335 6.5 1.5C6.97145 1.22315 7.01158 0.975594 7 0.5C6.84535 0.754709 6.74479 0.877343 6.5 1C5.86653 0.759605 5.55326 0.493006 5 0Z" fill="#59483B"/>
<ellipse cx="3.5" cy="10" rx="0.5" ry="1" fill="#2372AA"/>
<ellipse cx="9.5" cy="10" rx="0.5" ry="1" fill="#2372AA"/>
</svg>
