<svg width="10" height="10" viewBox="0 0 500 1000" fill="none" xmlns="http://www.w3.org/2000/svg">
    <g class="fish" id="fish">
    <!-- transform="translate(0, 40)" -->
        <title>fish</title>
        <path fill-rule="evenodd" clip-rule="evenodd" d="M275 1.99976C205.034 -0.824983 171.473 97.501 166.495 256C165.694 281.499 165.633 308.556 166.28 337C170.218 283.434 223 376.5 244.5 337C266 297.5 364.5 270 362.5 337C360.5 404 283.5 370.5 263.5 383C243.5 395.5 229.7 460.415 174.038 476C175.774 496.557 177.777 517.572 180.038 539C214.021 553.959 230 564 230 600C230 636 219.072 651.121 194.924 660C198.491 685.601 202.365 711.622 206.533 738C206.533 738 216.589 738 230 757C243.411 776 216.589 799 216.589 799C225.342 850.027 235.124 902.169 245.853 955C241.756 911.716 236 899 256 880.5C276 862 253.842 844.318 263.5 805C273.158 765.682 336.546 766.152 338.24 771.5C347.451 716.147 355.395 662.305 361.962 610.5C350.424 673.529 318 710 299.5 724C281 738 248.665 708.179 256 627C256.663 544.58 299.5 459.5 327.5 520.5C355.5 581.5 362.92 556.175 361.962 610.5C371.883 532.245 378.662 458.64 381.926 391.5C384.298 342.683 384.812 297.283 383.322 256C377.75 101.621 344.161 4.79198 275 1.99976ZM353.5 252.5C282.308 201.108 194.924 252.5 194.924 252.5C194.924 252.5 180.539 99.4997 275 99.4997C369.462 99.4997 353.5 252.5 353.5 252.5Z" fill="#EAE1D8"/>
        <path d="M194.924 252.5C194.924 252.5 282.308 201.108 353.5 252.5C353.5 252.5 369.462 99.4997 275 99.4997C180.539 99.4997 194.924 252.5 194.924 252.5Z" fill="#A92525"/>
        <path d="M244.5 337C223 376.5 170.218 283.434 166.28 337C166.648 353.226 167.247 369.903 168.07 387C169.444 415.546 171.443 445.262 174.038 476C229.7 460.415 243.5 395.5 263.5 383C283.5 370.5 360.5 404 362.5 337C364.5 270 266 297.5 244.5 337Z" fill="#A92525"/>
        <path d="M327.5 520.5C299.5 459.5 256.663 544.58 256 627C248.665 708.179 281 738 299.5 724C318 710 350.424 673.529 361.962 610.5C362.92 556.175 355.5 581.5 327.5 520.5Z" fill="#A92525"/>
        <path d="M230 600C230 564 214.021 553.959 180.038 539C184.159 578.05 189.137 618.472 194.924 660C219.072 651.121 230 636 230 600Z" fill="#A92525"/>
        <path d="M230 757C216.589 738 206.533 738 206.533 738C209.715 758.134 213.069 778.477 216.589 799C216.589 799 243.411 776 230 757Z" fill="#A92525"/>
        <path d="M245.853 955C254.91 999.595 264.642 1044.68 275 1090C290.498 1022.19 304.595 955.095 317.125 889.5L316.483 891.077C298.727 934.723 288.574 959.677 245.853 955Z" fill="#EAE1D8"/>
        <path d="M338.24 771.5C336.546 766.152 273.158 765.682 263.5 805C253.842 844.318 276 862 256 880.5C236 899 241.756 911.716 245.853 955C288.574 959.677 298.727 934.723 316.483 891.077L317.125 889.5C324.757 849.549 331.807 810.156 338.24 771.5Z" fill="#A92525"/>
        <path d="M383.322 256C384.812 297.283 384.298 342.683 381.926 391.5C469.916 433.408 510.246 439.319 550 387C546.772 350.626 510 315.38 458 287C406 258.62 411.781 270.322 383.322 256Z" fill="url(#paint0_radial_2_7)"/>
        <path d="M93.4952 286.5C49.4952 308.5 -1.72656 358.884 1.4952 387C48.8889 448.162 86.2153 425.525 168.07 387C167.247 369.903 166.648 353.226 166.28 337C165.633 308.556 165.694 281.499 166.495 256L93.4952 286.5Z" fill="url(#paint1_radial_2_7)"/>
        <path d="M275 1.99976L274.96 2.99895L275 1.99976ZM275 1090L274.025 1090.22L275.975 1090.22L275 1090ZM166.28 337L165.28 337.022L166.28 337ZM174.038 476L173.042 476.084L174.038 476ZM180.038 539L179.044 539.105L180.038 539ZM256 627L256.996 627.09L257 627.049L257 627.008L256 627ZM317.125 889.5L318.107 889.688L317.125 889.5ZM194.924 252.5L193.928 252.593L194.075 254.159L195.431 253.362L194.924 252.5ZM353.5 252.5L352.915 253.311L354.315 254.322L354.495 252.603L353.5 252.5ZM383.322 256L382.322 256.036L383.322 256ZM550 387L550.796 387.605L551.03 387.297L550.996 386.911L550 387ZM93.4952 286.5L93.1097 285.577L93.0784 285.59L93.048 285.605L93.4952 286.5ZM1.4952 387L0.5017 387.114L0.533523 387.391L0.704738 387.612L1.4952 387ZM166.495 256L167.495 256.031L166.495 256ZM167.277 337.073C167.765 330.43 169.004 326.248 170.709 323.814C171.548 322.616 172.491 321.854 173.515 321.412C174.542 320.968 175.713 320.821 177.042 320.952C179.736 321.217 182.949 322.611 186.586 324.738C190.204 326.855 194.123 329.626 198.225 332.54C206.361 338.321 215.251 344.701 223.483 347.091C227.629 348.296 231.707 348.52 235.484 347.078C239.272 345.631 242.609 342.565 245.378 337.478L243.622 336.522C241.016 341.309 238.001 343.976 234.771 345.209C231.531 346.447 227.927 346.3 224.04 345.171C216.206 342.895 207.622 336.763 199.383 330.91C195.298 328.007 191.304 325.182 187.596 323.012C183.907 320.854 180.382 319.271 177.238 318.961C175.647 318.805 174.124 318.97 172.722 319.576C171.315 320.183 170.094 321.206 169.071 322.667C167.051 325.551 165.779 330.178 165.282 336.926L167.277 337.073ZM245.378 337.478C250.635 327.82 260.656 318.812 272.79 311.779C284.913 304.754 299.052 299.755 312.439 298.054C325.845 296.351 338.363 297.971 347.373 304.01C356.318 310.006 361.992 320.488 361.5 336.97L363.5 337.03C364.008 320.011 358.119 308.806 348.486 302.349C338.918 295.935 325.843 294.336 312.186 296.07C298.511 297.807 284.119 302.902 271.788 310.049C259.469 317.188 249.115 326.429 243.622 336.522L245.378 337.478ZM361.5 336.97C361.007 353.516 355.896 363.679 348.362 369.925C340.788 376.204 330.601 378.664 319.679 379.44C308.749 380.216 297.286 379.299 287.158 378.961C282.119 378.793 277.406 378.769 273.312 379.187C269.232 379.604 265.662 380.469 262.97 382.152L264.03 383.848C266.338 382.405 269.549 381.582 273.516 381.177C277.469 380.773 282.069 380.792 287.092 380.96C297.089 381.294 308.751 382.221 319.821 381.435C330.899 380.648 341.587 378.139 349.638 371.465C357.729 364.758 362.993 353.983 363.5 337.03L361.5 336.97ZM262.97 382.152C257.743 385.418 253.022 392.024 248.06 400.089C243.039 408.249 237.759 417.927 231.305 427.796C218.442 447.466 201.248 467.343 173.769 475.037L174.308 476.963C202.49 469.072 220.026 448.698 232.979 428.89C239.434 419.02 244.832 409.151 249.763 401.137C254.753 393.027 259.257 386.831 264.03 383.848L262.97 382.152ZM173.042 476.084C174.778 496.649 176.782 517.671 179.044 539.105L181.032 538.895C178.772 517.474 176.77 496.466 175.035 475.916L173.042 476.084ZM179.635 539.915C196.651 547.405 208.949 553.584 217.03 562.29C225.047 570.927 229 582.161 229 600H231C231 581.839 226.964 570.052 218.496 560.929C210.092 551.875 197.408 545.554 180.441 538.085L179.635 539.915ZM179.044 539.105C183.165 578.167 188.146 618.6 193.933 660.138L195.914 659.862C190.129 618.345 185.152 577.933 181.032 538.895L179.044 539.105ZM229 600C229 617.918 226.277 630.484 220.665 639.648C215.07 648.784 206.522 654.67 194.579 659.061L195.269 660.939C207.474 656.451 216.464 650.336 222.37 640.692C228.259 631.076 231 618.082 231 600H229ZM328.409 520.083C321.377 504.764 313.171 498.075 304.523 498.82C300.255 499.187 296.069 501.369 292.083 504.911C288.093 508.456 284.246 513.413 280.64 519.455C266.234 543.592 255.332 585.653 255 626.992L257 627.008C257.33 585.927 268.178 544.238 282.357 520.48C285.897 514.548 289.623 509.772 293.411 506.406C297.202 503.038 300.998 501.131 304.695 500.812C311.974 500.185 319.623 505.736 326.591 520.917L328.409 520.083ZM255.004 626.91C251.326 667.615 257.575 695.604 267.204 711.706C272.017 719.755 277.718 724.901 283.512 727.101C289.345 729.316 295.198 728.51 300.103 724.797L298.897 723.203C294.552 726.49 289.425 727.207 284.222 725.231C278.979 723.24 273.586 718.482 268.92 710.679C259.59 695.076 253.339 667.564 256.996 627.09L255.004 626.91ZM300.103 724.797C318.789 710.657 351.359 673.972 362.946 610.68L360.978 610.32C349.488 673.086 317.211 709.343 298.897 723.203L300.103 724.797ZM326.591 520.917C340.631 551.505 349.575 560.555 354.751 568.547C359.805 576.352 361.441 583.32 360.962 610.482L362.962 610.518C363.441 583.355 361.845 575.823 356.43 567.46C351.134 559.283 342.369 550.495 328.409 520.083L326.591 520.917ZM360.97 610.374C354.404 662.165 346.463 715.994 337.254 771.336L339.226 771.664C348.439 716.299 356.385 662.444 362.954 610.626L360.97 610.374ZM339.193 771.198C338.961 770.464 338.297 769.988 337.685 769.674C337.023 769.334 336.163 769.051 335.166 768.818C333.164 768.349 330.439 768.042 327.234 767.95C320.817 767.766 312.345 768.443 303.624 770.528C286.243 774.684 267.495 784.544 262.529 804.761L264.471 805.239C269.163 786.139 286.938 776.574 304.089 772.473C312.634 770.43 320.93 769.77 327.177 769.949C330.304 770.039 332.884 770.338 334.71 770.765C335.628 770.98 336.313 771.217 336.771 771.452C337.277 771.713 337.307 771.868 337.287 771.802L339.193 771.198ZM262.529 804.761C257.645 824.646 260.813 839.094 262.641 850.712C263.557 856.537 264.12 861.559 263.267 866.249C262.424 870.888 260.178 875.273 255.321 879.766L256.679 881.234C261.822 876.477 264.306 871.714 265.235 866.606C266.155 861.549 265.532 856.224 264.616 850.401C262.779 838.723 259.698 824.672 264.471 805.239L262.529 804.761ZM244.873 955.199C253.932 999.802 263.665 1044.89 274.025 1090.22L275.975 1089.78C265.619 1044.46 255.888 999.388 246.833 954.801L244.873 955.199ZM255.321 879.766C250.263 884.445 246.784 888.803 244.504 893.415C242.222 898.035 241.171 902.852 240.891 908.406C240.613 913.941 241.1 920.235 241.903 927.806C242.71 935.404 243.833 944.276 244.858 955.094L246.849 954.906C245.824 944.082 244.692 935.133 243.892 927.595C243.089 920.03 242.619 913.872 242.889 908.506C243.158 903.158 244.162 898.622 246.297 894.302C248.436 889.974 251.737 885.805 256.679 881.234L255.321 879.766ZM337.254 771.336C330.822 809.984 323.773 849.369 316.143 889.312L318.107 889.688C325.74 849.729 332.792 810.329 339.226 771.664L337.254 771.336ZM316.143 889.312C303.615 954.895 289.521 1021.98 274.025 1089.78L275.975 1090.22C291.476 1022.4 305.575 955.295 318.107 889.688L316.143 889.312ZM193.933 660.138C197.501 685.745 201.376 711.772 205.546 738.156L207.521 737.844C203.353 711.471 199.48 685.457 195.914 659.862L193.933 660.138ZM206.533 738C206.533 739 206.533 739 206.532 739C206.531 739 206.531 739 206.53 739C206.529 739 206.528 739 206.528 739C206.527 739 206.526 739 206.526 739C206.526 739 206.528 739 206.533 739C206.542 739 206.561 739.001 206.589 739.003C206.646 739.006 206.74 739.014 206.869 739.03C207.129 739.062 207.531 739.128 208.065 739.265C209.131 739.54 210.725 740.1 212.745 741.245C216.783 743.534 222.545 748.173 229.183 757.577L230.817 756.423C224.044 746.827 218.073 741.966 213.731 739.505C211.56 738.275 209.802 737.648 208.564 737.328C207.945 737.169 207.457 737.087 207.114 737.045C206.942 737.023 206.807 737.012 206.71 737.006C206.661 737.004 206.622 737.002 206.592 737.001C206.578 737.001 206.565 737 206.556 737C206.551 737 206.546 737 206.543 737C206.541 737 206.539 737 206.538 737C206.537 737 206.536 737 206.535 737C206.534 737 206.533 737 206.533 738ZM205.546 738.156C208.728 758.295 212.083 778.642 215.604 799.169L217.575 798.831C214.056 778.312 210.702 757.974 207.521 737.844L205.546 738.156ZM215.604 799.169C224.358 850.206 234.142 902.359 244.873 955.199L246.833 954.801C236.106 901.98 226.326 849.847 217.575 798.831L215.604 799.169ZM229.183 757.577C235.528 766.566 232.441 776.573 227.473 784.599C225.005 788.587 222.118 792.002 219.842 794.425C218.705 795.634 217.725 796.593 217.03 797.247C216.683 797.574 216.407 797.824 216.22 797.992C216.126 798.076 216.055 798.14 216.007 798.181C215.983 798.202 215.965 798.218 215.954 798.228C215.948 798.233 215.944 798.236 215.941 798.238C215.94 798.239 215.939 798.24 215.939 798.241C215.939 798.241 215.938 798.241 215.938 798.241C215.938 798.241 215.938 798.241 216.589 799C217.24 799.759 217.241 799.759 217.241 799.758C217.242 799.758 217.242 799.758 217.243 799.757C217.244 799.756 217.245 799.755 217.247 799.753C217.251 799.75 217.257 799.745 217.264 799.739C217.278 799.727 217.298 799.709 217.325 799.686C217.378 799.639 217.455 799.571 217.555 799.482C217.754 799.304 218.041 799.042 218.401 798.703C219.121 798.025 220.131 797.038 221.299 795.794C223.633 793.31 226.613 789.788 229.174 785.651C234.264 777.427 237.882 766.434 230.817 756.423L229.183 757.577ZM194.924 252.5C195.431 253.362 195.431 253.362 195.431 253.361C195.431 253.361 195.432 253.361 195.433 253.36C195.435 253.359 195.439 253.357 195.444 253.354C195.454 253.348 195.469 253.34 195.489 253.328C195.529 253.304 195.591 253.269 195.672 253.222C195.836 253.129 196.082 252.99 196.407 252.81C197.056 252.451 198.021 251.928 199.276 251.28C201.787 249.985 205.457 248.188 210.086 246.191C219.346 242.195 232.428 237.402 247.719 234.207C278.31 227.815 317.63 227.84 352.915 253.311L354.085 251.689C318.177 225.768 278.209 225.793 247.31 232.249C231.856 235.478 218.643 240.32 209.294 244.355C204.618 246.372 200.905 248.189 198.359 249.503C197.086 250.16 196.104 250.692 195.438 251.06C195.105 251.244 194.852 251.388 194.681 251.485C194.595 251.534 194.53 251.572 194.486 251.597C194.464 251.61 194.447 251.62 194.435 251.627C194.43 251.63 194.425 251.633 194.422 251.635C194.42 251.635 194.419 251.636 194.418 251.637C194.417 251.637 194.417 251.638 194.924 252.5ZM353.5 252.5C354.495 252.603 354.495 252.603 354.495 252.601C354.495 252.6 354.495 252.598 354.495 252.595C354.496 252.59 354.497 252.583 354.498 252.573C354.5 252.554 354.503 252.525 354.506 252.488C354.514 252.413 354.525 252.301 354.538 252.155C354.566 251.862 354.605 251.429 354.653 250.865C354.747 249.737 354.873 248.086 355 245.986C355.253 241.786 355.508 235.789 355.518 228.595C355.539 214.212 354.58 195.014 350.653 175.799C346.729 156.598 339.823 137.293 327.889 122.771C315.923 108.209 298.931 98.4997 275 98.4997V100.5C298.3 100.5 314.736 109.915 326.344 124.041C337.985 138.206 344.8 157.152 348.693 176.2C352.584 195.236 353.538 214.288 353.518 228.592C353.508 235.741 353.254 241.698 353.003 245.865C352.878 247.949 352.753 249.585 352.66 250.698C352.613 251.255 352.574 251.681 352.547 251.967C352.534 252.11 352.523 252.218 352.516 252.29C352.513 252.326 352.51 252.353 352.508 252.37C352.507 252.379 352.506 252.386 352.506 252.39C352.506 252.392 352.506 252.394 352.506 252.395C352.505 252.396 352.505 252.396 353.5 252.5ZM275 98.4997C251.07 98.4997 233.982 108.208 221.869 122.766C209.787 137.286 202.683 156.588 198.561 175.79C194.436 195.004 193.28 214.201 193.152 228.585C193.088 235.779 193.282 241.775 193.491 245.975C193.596 248.075 193.705 249.727 193.788 250.855C193.829 251.419 193.864 251.852 193.889 252.145C193.901 252.291 193.911 252.402 193.918 252.478C193.921 252.515 193.923 252.544 193.925 252.563C193.926 252.573 193.927 252.58 193.927 252.585C193.928 252.588 193.928 252.59 193.928 252.591C193.928 252.592 193.928 252.593 194.924 252.5C195.919 252.406 195.919 252.406 195.919 252.405C195.919 252.404 195.919 252.402 195.919 252.4C195.918 252.396 195.918 252.389 195.917 252.381C195.915 252.363 195.913 252.336 195.91 252.3C195.903 252.228 195.894 252.12 195.882 251.977C195.858 251.691 195.823 251.265 195.782 250.708C195.701 249.595 195.593 247.959 195.489 245.876C195.281 241.708 195.088 235.752 195.152 228.602C195.279 214.298 196.43 195.246 200.517 176.21C204.606 157.161 211.617 138.214 223.406 124.046C235.163 109.916 251.7 100.5 275 100.5V98.4997ZM245.744 955.994C256.521 957.174 265.317 956.493 272.726 954.073C280.146 951.649 286.119 947.499 291.27 941.832C301.515 930.561 308.558 913.212 317.41 891.454L315.557 890.7C306.652 912.588 299.741 929.539 289.79 940.487C284.844 945.929 279.158 949.868 272.105 952.172C265.04 954.48 256.546 955.165 245.962 954.006L245.744 955.994ZM317.41 891.454L318.051 889.877L316.199 889.123L315.557 890.7L317.41 891.454ZM317.41 891.454C317.622 890.931 317.836 890.405 318.051 889.877L316.199 889.123C315.984 889.651 315.77 890.177 315.557 890.7L317.41 891.454ZM274.96 2.99895C308.965 4.37182 334.404 28.8328 352.08 72.5298C369.754 116.223 379.538 178.887 382.322 256.036L384.321 255.964C381.534 178.733 371.738 115.794 353.934 71.7798C336.132 27.7695 310.197 2.41992 275.04 1.00057L274.96 2.99895ZM382.322 256.036C383.811 297.286 383.298 342.656 380.927 391.451L382.924 391.548C385.298 342.709 385.812 297.281 384.321 255.964L382.322 256.036ZM380.927 391.451C377.665 458.561 370.888 532.14 360.97 610.374L362.954 610.626C372.877 532.351 379.66 458.719 382.924 391.548L380.927 391.451ZM549.204 386.395C529.458 412.383 509.707 423.759 484.058 423.585C458.259 423.41 426.366 411.558 382.356 390.597L381.496 392.403C425.475 413.349 457.743 425.407 484.045 425.585C510.498 425.764 530.789 413.936 550.796 387.605L549.204 386.395ZM382.872 256.893C397.21 264.108 402.994 264.79 411.564 267.191C420.078 269.576 431.56 273.708 457.521 287.877L458.479 286.122C432.44 271.911 420.813 267.705 412.103 265.265C403.449 262.841 397.893 262.213 383.771 255.106L382.872 256.893ZM457.521 287.877C483.463 302.036 505.562 317.884 521.565 334.692C537.574 351.505 547.417 369.209 549.004 387.088L550.996 386.911C549.355 368.417 539.198 350.311 523.014 333.313C506.824 316.309 484.537 300.344 458.479 286.122L457.521 287.877ZM93.048 285.605C70.9334 296.663 47.0359 314.832 29.0618 333.768C20.0734 343.237 12.5399 352.926 7.45038 362.042C2.37445 371.133 -0.338931 379.778 0.5017 387.114L2.4887 386.886C1.71845 380.164 4.19962 371.967 9.19666 363.017C14.1801 354.09 21.598 344.536 30.5123 335.145C48.3436 316.359 72.057 298.337 93.9424 287.394L93.048 285.605ZM0.704738 387.612C12.6051 402.97 23.9304 413.143 35.5491 419.11C47.1884 425.087 59.0566 426.81 71.9701 425.377C84.8564 423.946 98.7815 419.372 114.561 412.776C130.338 406.181 148.054 397.526 168.496 387.904L167.644 386.095C147.159 395.736 129.513 404.358 113.789 410.931C98.0672 417.503 84.3508 421.99 71.7494 423.389C59.1752 424.785 47.7095 423.107 36.4628 417.331C25.1952 411.544 14.0822 401.611 2.28566 386.387L0.704738 387.612ZM275.04 1.00057C239.431 -0.437088 213.272 23.9279 195.449 68.1295C177.625 112.335 167.986 176.681 165.496 255.968L167.495 256.031C169.982 176.819 179.612 112.754 197.304 68.8774C214.998 24.9975 240.603 1.61186 274.96 2.99895L275.04 1.00057ZM165.496 255.968C164.694 281.488 164.633 308.563 165.28 337.022L167.28 336.977C166.634 308.549 166.695 281.51 167.495 256.031L165.496 255.968ZM93.8807 287.422L166.881 256.922L166.11 255.077L93.1097 285.577L93.8807 287.422ZM165.28 337.022C165.649 353.257 166.248 369.943 167.071 387.048L169.069 386.952C168.247 369.863 167.648 353.194 167.28 336.977L165.28 337.022ZM167.071 387.048C168.446 415.607 170.446 445.335 173.042 476.084L175.035 475.916C172.44 445.188 170.442 415.484 169.069 386.952L167.071 387.048ZM275.158 2.9872C296.688 -0.457481 314.821 6.50255 331.377 19.4363C347.968 32.3973 362.911 51.3084 378.009 71.6583C393.078 91.9685 408.296 113.706 425.368 132.125C442.448 150.553 461.464 165.754 484.198 172.953L484.802 171.047C462.536 163.996 443.802 149.072 426.835 130.766C409.86 112.45 394.734 90.844 379.616 70.4666C364.526 50.1289 349.439 31.0087 332.608 17.8602C315.742 4.68459 297.063 -2.54295 274.842 1.01232L275.158 2.9872ZM275.048 1.00089C247.203 -0.325028 228.591 5.19549 214.259 15.6937C199.973 26.1589 190.05 41.4991 179.446 59.5322C158.225 95.6187 134.009 142.989 66.4615 186.157L67.5385 187.843C135.533 144.388 159.956 96.6219 181.17 60.546C191.783 42.4978 201.526 27.5003 215.441 17.3071C229.311 7.14686 247.436 1.68834 274.953 2.99863L275.048 1.00089Z" fill="url(#paint2_linear_2_7)"/>
        <defs>
        <radialGradient id="paint0_radial_2_7" cx="0" cy="0" r="1" gradientUnits="userSpaceOnUse" gradientTransform="translate(369 233.847) rotate(36.8213) scale(329.79 201.95)">
        <stop stop-color="#EAE1D8"/>
        <stop offset="0.489195" stop-color="#EAE1D8"/>
        <stop offset="1" stop-color="#EAE1D8" stop-opacity="0"/>
        </radialGradient>
        <radialGradient id="paint1_radial_2_7" cx="0" cy="0" r="1" gradientUnits="userSpaceOnUse" gradientTransform="translate(104.5 209.328) rotate(119.812) scale(290.656 245.004)">
        <stop stop-color="#EAE1D8"/>
        <stop offset="0.526042" stop-color="#EAE1D8"/>
        <stop offset="1" stop-color="#EAE1D8" stop-opacity="0"/>
        </radialGradient>
        <linearGradient id="paint2_linear_2_7" x1="275.675" y1="1.11041" x2="275.675" y2="1090" gradientUnits="userSpaceOnUse">
        <stop stop-color="#EAE1D8"/>
        <stop offset="0.171875" stop-color="#EAE1D8" stop-opacity="0"/>
        </linearGradient>
        </defs>
    </g>
</svg>
